<svg width="162" height="34" viewBox="0 0 162 34" fill="none" xmlns="http://www.w3.org/2000/svg">
<g clip-path="url(#clip0_637_368)">
<path fill-rule="evenodd" clip-rule="evenodd" d="M48.6118 25.2521C49.6714 25.6826 50.8635 25.8978 52.1881 25.8978C53.5126 25.8978 54.6964 25.6826 55.7395 25.2521C56.7991 24.8216 57.6932 24.209 58.4217 23.4143C59.1667 22.603 59.7296 21.651 60.1104 20.5582C60.5078 19.4655 60.7065 18.2486 60.7065 16.9075C60.7065 15.5664 60.5078 14.3495 60.1104 13.2567C59.7296 12.164 59.1667 11.2203 58.4217 10.4255C57.6766 9.6143 56.7825 8.99342 55.7395 8.56295C54.6964 8.13247 53.5126 7.91724 52.1881 7.91724C50.847 7.91724 49.6549 8.13247 48.6118 8.56295C47.5687 8.99342 46.6747 9.6143 45.9296 10.4255C45.2011 11.2203 44.6465 12.164 44.2657 13.2567C43.8849 14.3495 43.6945 15.5664 43.6945 16.9075C43.6945 18.2486 43.8849 19.4655 44.2657 20.5582C44.6465 21.651 45.2011 22.603 45.9296 23.4143C46.6747 24.209 47.5687 24.8216 48.6118 25.2521ZM46.6498 20.6328C46.1697 19.5566 45.9296 18.3148 45.9296 16.9075C45.9296 15.8479 46.0621 14.8876 46.327 14.0266C46.6084 13.1491 47.0141 12.3958 47.5439 11.7666C48.0903 11.1375 48.7443 10.6491 49.5059 10.3014C50.284 9.95371 51.1781 9.77987 52.1881 9.77987C53.5292 9.77987 54.6633 10.0861 55.5905 10.6987C56.5176 11.2948 57.2213 12.1309 57.7014 13.2071C58.1981 14.2667 58.4465 15.5002 58.4465 16.9075C58.4465 17.9671 58.3058 18.9357 58.0243 19.8132C57.7594 20.6741 57.3538 21.4192 56.8074 22.0484C56.2776 22.6775 55.6236 23.1659 54.8454 23.5136C54.0672 23.8613 53.1815 24.0352 52.1881 24.0352C50.8304 24.0352 49.688 23.7371 48.7608 23.1411C47.8502 22.5285 47.1465 21.6924 46.6498 20.6328ZM63.9874 8.21411H66.4958L75.6351 21.8734V8.21411H77.7212V25.5986H75.6599L66.0736 11.3185V25.5986H63.9874V8.21411ZM92.8241 8.21411H81.0026V25.5986H93.0724V23.736H83.2129V17.6514H91.781V15.8384H83.2129V10.0767H92.8241V8.21411ZM96.3531 8.21411H110.112V10.1015H104.325V25.5986H102.14V10.1015H96.3531V8.21411ZM125.213 8.21411H113.392V25.5986H125.462V23.736H115.602V17.6514H124.17V15.8384H115.602V10.0767H125.213V8.21411ZM130.953 18.3468H134.944L139.72 25.5986H142.352L137.408 18.2357C137.768 18.1697 138.109 18.0743 138.428 17.9494C139.124 17.668 139.72 17.2872 140.217 16.807C140.713 16.3269 141.086 15.7805 141.334 15.1679C141.599 14.5387 141.732 13.8765 141.732 13.1811C141.732 12.4857 141.599 11.84 141.334 11.244C141.069 10.6314 140.688 10.1015 140.192 9.65455C139.712 9.20752 139.124 8.85982 138.428 8.61147C137.75 8.34657 136.988 8.21411 136.144 8.21411H128.743V25.5986H130.953V18.3468ZM135.895 10.0519H130.953V16.5338H135.87C136.599 16.5338 137.228 16.3848 137.758 16.0868C138.304 15.7722 138.726 15.3666 139.025 14.8699C139.323 14.3566 139.472 13.802 139.472 13.2059C139.472 12.6099 139.323 12.0801 139.025 11.6165C138.726 11.1363 138.304 10.7555 137.758 10.4741C137.228 10.1926 136.607 10.0519 135.895 10.0519ZM146.769 25.5986H144.608L151.612 8.21411H154.045L160.925 25.5986H158.615L156.878 21.178H148.559L146.769 25.5986ZM156.205 19.365H149.266L152.76 10.61L156.205 19.365Z" fill="#2E2E2E"/>
<path fill-rule="evenodd" clip-rule="evenodd" d="M24.6434 3.58808C25.7838 4.43689 27.0155 5.57747 27.9966 6.88163V6.87721C29.2305 8.51515 30.0842 10.4249 29.9143 12.4011C29.7635 14.1318 28.7123 15.7432 27.23 16.539C23.9872 18.1526 20.05 16.4926 17.4422 14.2799C16.7117 13.6393 16.0366 12.9227 15.3613 12.206C14.0771 10.8432 12.7924 9.47984 11.1265 8.63672C10.2658 9.28103 9.45032 9.98306 8.62367 10.6947C8.38965 10.8961 8.15473 11.0984 7.91765 11.3003C6.76663 12.2817 5.47971 13.2587 3.97617 13.4864C3.06301 13.6234 2.00332 13.5019 1.38321 12.7149C0.599591 11.718 0.854427 10.0602 1.88439 8.48199C4.7237 3.56818 9.92024 0.484619 15.4332 0.484619C18.7206 0.484619 21.974 1.59647 24.6434 3.58808ZM13.3308 7.21983C12.9103 7.44309 12.509 7.68845 12.1182 7.94486H12.1224C13.666 8.83997 14.8777 10.1244 16.0812 11.4002C16.7471 12.106 17.4104 12.8091 18.126 13.4422C20.4896 15.4294 23.915 16.9192 26.7501 15.5664C27.9181 14.9387 28.7484 13.6588 28.8652 12.3082C29.0266 10.436 28.0094 8.66546 27.1281 7.50719C27.126 7.50498 27.1238 7.50222 27.1217 7.49946C27.1196 7.49669 27.1175 7.49393 27.1153 7.49172C25.6798 5.53548 23.0379 5.35643 20.8803 5.29233C18.2513 5.29233 15.6689 5.97977 13.3308 7.21983ZM6.25696 7.5094C4.94668 7.47182 3.56207 7.88296 2.77207 9.03681L2.7742 9.0346C2.17745 9.85026 1.41932 11.7291 2.64465 12.3414C3.33696 12.6575 4.248 12.348 4.89783 12.0584C5.76428 11.6716 6.53091 11.066 7.25082 10.4515C7.45615 10.276 7.65987 10.1006 7.86321 9.92547C8.56418 9.32176 9.26065 8.72194 10.0031 8.13938C8.8032 7.6995 7.5269 7.5094 6.25696 7.5094ZM24.0552 4.5021C24.0456 4.49491 24.0361 4.48773 24.0276 4.4811C21.6958 2.73927 18.865 1.71584 16.0023 1.59647C11.7402 1.40637 7.46531 3.28967 4.58778 6.55891C6.74328 6.21629 9.07928 6.49923 11.0224 7.37677C11.6022 6.96784 12.2074 6.58323 12.8509 6.24061C15.3737 4.89887 18.1515 4.19153 20.8782 4.19153C21.8827 4.19153 22.9764 4.30868 24.0828 4.52309C24.0743 4.51646 24.0647 4.50928 24.0552 4.5021ZM6.21635 30.2216C5.07596 29.3728 3.84425 28.2322 2.86313 26.9281C1.62929 25.2901 0.77559 23.3803 0.945481 21.4042C1.09414 19.6734 2.14746 18.062 3.62764 17.2706C6.87043 15.657 10.8077 17.3171 13.4155 19.5297C14.1459 20.1704 14.8211 20.8869 15.4964 21.6036C16.7806 22.9665 18.0652 24.3299 19.7312 25.173C20.5918 24.5287 21.4073 23.8266 22.234 23.115C22.468 22.9135 22.7029 22.7113 22.94 22.5094C24.091 21.528 25.3779 20.5509 26.8815 20.3233C27.7946 20.1862 28.8543 20.3078 29.4744 21.0947C30.2581 22.0916 30.0032 23.7494 28.9733 25.3277C26.1361 30.2415 20.9395 33.3251 15.4266 33.3251C12.1392 33.3251 8.88576 32.2132 6.21635 30.2216ZM17.529 26.5876C17.9494 26.3644 18.3508 26.119 18.7416 25.8626H18.7373C17.1938 24.9675 15.982 23.683 14.7786 22.4073C14.1127 21.7015 13.4494 20.9983 12.7338 20.3653C10.3702 18.3781 6.94476 16.8882 4.1097 18.241C2.9417 18.8688 2.11136 20.1486 1.99456 21.4992C1.83316 23.3715 2.85038 25.142 3.73169 26.3003C3.73382 26.3025 3.73594 26.3053 3.73807 26.308C3.74019 26.3108 3.74231 26.3136 3.74444 26.3158C5.18001 28.272 7.82182 28.4511 9.97944 28.5152C12.6085 28.5152 15.1908 27.8277 17.529 26.5876ZM24.6028 26.3003C25.9131 26.3379 27.2977 25.9267 28.0877 24.7729L28.0856 24.7751C28.6823 23.9594 29.4405 22.0806 28.2151 21.4683C27.5228 21.1522 26.6118 21.4616 25.9619 21.7512C25.0955 22.138 24.3289 22.7437 23.6089 23.3582C23.4036 23.5337 23.1999 23.7091 22.9965 23.8842C22.2956 24.4879 21.5991 25.0878 20.8567 25.6703C22.0566 26.1102 23.3329 26.3003 24.6028 26.3003ZM6.80247 29.3076C6.81203 29.3148 6.82159 29.322 6.83008 29.3286H6.82796C9.15971 31.0704 11.9905 32.0939 14.8532 32.2132C19.1174 32.4033 23.3902 30.52 26.2699 27.2508C24.1144 27.5934 21.7784 27.3105 19.8352 26.4329C19.2555 26.8419 18.6502 27.2265 18.0068 27.5691C15.4839 28.9108 12.7062 29.6182 9.97944 29.6182C8.97496 29.6182 7.88128 29.501 6.77487 29.2866C6.78336 29.2932 6.79292 29.3004 6.80247 29.3076Z" fill="#2E2E2E"/>
</g>
<defs>
<clipPath id="clip0_637_368">
<rect width="161" height="34" fill="white" transform="translate(0.5)"/>
</clipPath>
</defs>
</svg>
